<svg xmlns="http://www.w3.org/2000/svg" viewBox="0 0 32 32" width="32" height="32"><rect width="32" height="32" fill="#0d0d0c"/><g fill="#e8ff2a"><rect x="6" y="2" width="4" height="4"/><rect x="22" y="2" width="4" height="4"/><rect x="6" y="6" width="4" height="4"/><rect x="10" y="6" width="4" height="4"/><rect x="22" y="6" width="4" height="4"/><rect x="6" y="10" width="4" height="4"/><rect x="14" y="10" width="4" height="4"/><rect x="22" y="10" width="4" height="4"/><rect x="6" y="14" width="4" height="4"/><rect x="18" y="14" width="4" height="4"/><rect x="22" y="14" width="4" height="4"/><rect x="6" y="18" width="4" height="4"/><rect x="22" y="18" width="4" height="4"/><rect x="6" y="22" width="4" height="4"/><rect x="22" y="22" width="4" height="4"/><rect x="6" y="26" width="4" height="4"/><rect x="22" y="26" width="4" height="4"/></g></svg>
