<svg xmlns="http://www.w3.org/2000/svg" width="260" height="260" viewBox="0 0 260 260" fill="none" stroke-linecap="round"><path d="M39.8 164.2Q40.2 169.3 38.7 174.3" stroke="#e8ff2a" stroke-opacity="0.42" stroke-width="1.2"/><path d="M4.9 111.3Q9.9 112.2 14.6 114.2" stroke="#e8ff2a" stroke-opacity="0.42" stroke-width="1.9"/><path d="M60.8 151.9Q58.7 163.3 55.3 174.4" stroke="#e8ff2a" stroke-opacity="0.42" stroke-width="2.1"/><path d="M218.0 73.3Q223.7 74.0 228.4 77.3" stroke="#e8ff2a" stroke-opacity="0.42" stroke-width="1.9"/><path d="M152.3 158.9Q154.2 166.6 150.1 173.3" stroke="#e8ff2a" stroke-opacity="0.42" stroke-width="1.2"/><path d="M178.7 104.6Q177.2 111.3 175.1 117.8" stroke="#e8ff2a" stroke-opacity="0.42" stroke-width="1.4"/><path d="M182.4 54.7Q179.1 63.3 181.0 72.2" stroke="#ff3b3b" stroke-opacity="0.4" stroke-width="1.8"/><path d="M0.4 25.4Q-3.5 32.5 -10.7 36.0" stroke="#e8ff2a" stroke-opacity="0.42" stroke-width="1.6"/><path d="M260.4 25.4Q256.5 32.5 249.3 36.0" stroke="#e8ff2a" stroke-opacity="0.42" stroke-width="1.6"/><path d="M181.9 195.4Q174.2 200.0 165.6 202.1" stroke="#e8ff2a" stroke-opacity="0.42" stroke-width="1.8"/><path d="M161.4 116.7Q150.8 118.8 140.1 120.5" stroke="#e8ff2a" stroke-opacity="0.42" stroke-width="1.8"/><path d="M192.5 161.9Q183.2 169.5 172.3 174.6" stroke="#e8ff2a" stroke-opacity="0.42" stroke-width="1.5"/><path d="M0.5 118.0Q7.0 117.2 11.2 122.1" stroke="#ff3b3b" stroke-opacity="0.4" stroke-width="1.9"/><path d="M260.5 118.0Q267.0 117.2 271.2 122.1" stroke="#ff3b3b" stroke-opacity="0.4" stroke-width="1.9"/><path d="M53.7 98.9Q64.5 101.3 75.1 104.4" stroke="#e8ff2a" stroke-opacity="0.42" stroke-width="1.6"/><path d="M211.3 218.3Q214.0 224.4 214.7 231.0" stroke="#ff3b3b" stroke-opacity="0.4" stroke-width="2.0"/><path d="M34.6 41.6Q39.3 45.7 43.9 50.0" stroke="#f3f2ec" stroke-opacity="0.14" stroke-width="1.7"/><path d="M2.6 101.8Q-2.0 108.3 -0.4 116.0" stroke="#e8ff2a" stroke-opacity="0.42" stroke-width="1.8"/><path d="M262.6 101.8Q258.0 108.3 259.6 116.0" stroke="#e8ff2a" stroke-opacity="0.42" stroke-width="1.8"/><path d="M165.2 174.3Q160.0 173.9 155.9 177.3" stroke="#e8ff2a" stroke-opacity="0.42" stroke-width="2.0"/><path d="M104.2 98.9Q104.8 105.0 99.9 108.5" stroke="#ff3b3b" stroke-opacity="0.4" stroke-width="1.2"/><path d="M37.3 88.4Q42.2 86.0 47.1 88.4" stroke="#e8ff2a" stroke-opacity="0.42" stroke-width="1.2"/><path d="M-1.5 223.2Q7.4 225.8 14.8 231.4" stroke="#e8ff2a" stroke-opacity="0.42" stroke-width="1.4"/><path d="M258.5 223.2Q267.4 225.8 274.8 231.4" stroke="#e8ff2a" stroke-opacity="0.42" stroke-width="1.4"/><path d="M30.7 208.8Q32.1 220.7 33.2 232.6" stroke="#e8ff2a" stroke-opacity="0.42" stroke-width="1.2"/><path d="M79.7 63.6Q90.7 65.9 98.5 74.0" stroke="#e8ff2a" stroke-opacity="0.42" stroke-width="2.1"/><path d="M38.5 136.5Q34.8 140.9 37.7 145.9" stroke="#e8ff2a" stroke-opacity="0.42" stroke-width="2.0"/><path d="M72.2 91.6Q67.7 95.2 63.6 99.1" stroke="#ff3b3b" stroke-opacity="0.4" stroke-width="1.9"/><path d="M68.6 205.7Q57.0 209.1 47.4 216.3" stroke="#e8ff2a" stroke-opacity="0.42" stroke-width="1.9"/><path d="M51.8 133.9Q59.3 131.3 66.1 135.2" stroke="#ff3b3b" stroke-opacity="0.4" stroke-width="1.4"/><path d="M187.8 247.2Q179.4 245.3 172.4 250.2" stroke="#e8ff2a" stroke-opacity="0.42" stroke-width="2.1"/><path d="M52.5 55.4Q56.8 59.7 62.1 62.6" stroke="#e8ff2a" stroke-opacity="0.42" stroke-width="2.0"/><path d="M114.5 167.0Q124.4 170.9 134.8 172.5" stroke="#ff3b3b" stroke-opacity="0.4" stroke-width="2.0"/><path d="M199.6 120.7Q195.8 125.2 190.4 127.9" stroke="#ff3b3b" stroke-opacity="0.4" stroke-width="1.9"/><path d="M110.4 95.5Q104.7 105.9 95.4 113.2" stroke="#f3f2ec" stroke-opacity="0.14" stroke-width="1.2"/><path d="M240.0 206.8Q233.5 206.8 230.5 212.6" stroke="#e8ff2a" stroke-opacity="0.42" stroke-width="1.8"/><path d="M147.2 33.6Q142.6 33.0 138.1 34.5" stroke="#e8ff2a" stroke-opacity="0.42" stroke-width="1.6"/><path d="M104.4 220.1Q113.9 225.3 121.2 233.2" stroke="#ff3b3b" stroke-opacity="0.4" stroke-width="1.4"/><path d="M145.5 64.4Q151.3 70.1 159.5 70.5" stroke="#e8ff2a" stroke-opacity="0.42" stroke-width="1.5"/><path d="M159.1 233.2Q151.7 235.1 144.3 237.1" stroke="#e8ff2a" stroke-opacity="0.42" stroke-width="1.6"/><path d="M-1.0 114.4Q4.8 116.5 10.7 114.5" stroke="#e8ff2a" stroke-opacity="0.42" stroke-width="1.3"/><path d="M259.0 114.4Q264.8 116.5 270.7 114.5" stroke="#e8ff2a" stroke-opacity="0.42" stroke-width="1.3"/><path d="M189.0 137.8Q188.2 144.7 188.2 151.6" stroke="#e8ff2a" stroke-opacity="0.42" stroke-width="1.9"/><path d="M150.6 60.3Q145.6 64.6 140.7 68.9" stroke="#e8ff2a" stroke-opacity="0.42" stroke-width="1.7"/><path d="M237.4 106.2Q237.2 115.2 237.1 124.3" stroke="#ff3b3b" stroke-opacity="0.4" stroke-width="1.8"/><path d="M145.4 114.9Q136.5 122.7 131.9 133.7" stroke="#e8ff2a" stroke-opacity="0.42" stroke-width="2.0"/><path d="M135.7 240.7Q146.6 242.8 155.3 249.8" stroke="#e8ff2a" stroke-opacity="0.42" stroke-width="1.5"/><path d="M70.0 13.0Q60.8 16.8 55.2 25.0" stroke="#e8ff2a" stroke-opacity="0.42" stroke-width="1.3"/><path d="M182.7 36.0Q171.9 39.1 160.6 38.3" stroke="#ff3b3b" stroke-opacity="0.4" stroke-width="2.1"/><path d="M117.3 -7.9Q126.9 -3.1 136.1 2.6" stroke="#e8ff2a" stroke-opacity="0.42" stroke-width="1.6"/><path d="M117.3 252.1Q126.9 256.9 136.1 262.6" stroke="#e8ff2a" stroke-opacity="0.42" stroke-width="1.6"/><path d="M41.0 82.2Q50.9 83.2 60.8 83.4" stroke="#e8ff2a" stroke-opacity="0.42" stroke-width="1.5"/><path d="M78.0 160.5Q85.5 165.5 94.4 163.9" stroke="#e8ff2a" stroke-opacity="0.42" stroke-width="1.9"/><path d="M30.9 66.0Q28.3 70.3 23.6 72.1" stroke="#f3f2ec" stroke-opacity="0.14" stroke-width="1.2"/><path d="M231.2 210.0Q235.6 215.6 242.7 215.8" stroke="#e8ff2a" stroke-opacity="0.42" stroke-width="1.7"/><path d="M21.0 5.6Q26.2 14.3 25.5 24.4" stroke="#ff3b3b" stroke-opacity="0.4" stroke-width="2.0"/><path d="M197.7 19.5Q207.9 24.3 219.1 24.0" stroke="#ff3b3b" stroke-opacity="0.4" stroke-width="1.6"/><path d="M137.8 238.4Q143.7 241.1 149.8 243.5" stroke="#e8ff2a" stroke-opacity="0.42" stroke-width="1.3"/><path d="M38.6 8.1Q43.1 12.3 45.3 18.1" stroke="#e8ff2a" stroke-opacity="0.42" stroke-width="1.9"/><path d="M122.9 45.8Q130.1 44.5 137.1 46.7" stroke="#e8ff2a" stroke-opacity="0.42" stroke-width="1.1"/><path d="M151.2 47.6Q143.8 52.0 135.4 50.9" stroke="#ff3b3b" stroke-opacity="0.4" stroke-width="1.9"/><path d="M128.9 209.6Q127.4 217.0 128.5 224.4" stroke="#e8ff2a" stroke-opacity="0.42" stroke-width="2.1"/><path d="M213.7 174.9Q217.4 183.4 219.1 192.6" stroke="#e8ff2a" stroke-opacity="0.42" stroke-width="1.2"/><path d="M12.8 189.5Q19.8 190.1 24.0 195.8" stroke="#e8ff2a" stroke-opacity="0.42" stroke-width="1.9"/><path d="M170.5 68.3Q174.6 73.1 178.2 78.3" stroke="#ff3b3b" stroke-opacity="0.4" stroke-width="1.3"/><path d="M70.2 -21.6Q70.2 -9.7 66.7 1.7" stroke="#e8ff2a" stroke-opacity="0.42" stroke-width="2.1"/><path d="M70.2 238.4Q70.2 250.3 66.7 261.7" stroke="#e8ff2a" stroke-opacity="0.42" stroke-width="2.1"/><path d="M92.1 -7.1Q92.7 0.3 93.3 7.6" stroke="#e8ff2a" stroke-opacity="0.42" stroke-width="1.3"/><path d="M92.1 252.9Q92.7 260.3 93.3 267.6" stroke="#e8ff2a" stroke-opacity="0.42" stroke-width="1.3"/><path d="M-0.3 63.8Q4.3 67.7 2.9 73.6" stroke="#e8ff2a" stroke-opacity="0.42" stroke-width="1.1"/><path d="M259.7 63.8Q264.3 67.7 262.9 73.6" stroke="#e8ff2a" stroke-opacity="0.42" stroke-width="1.1"/><path d="M66.5 146.3Q59.8 151.5 54.5 158.2" stroke="#e8ff2a" stroke-opacity="0.42" stroke-width="1.8"/><path d="M90.7 79.4Q100.6 86.2 111.9 90.2" stroke="#ff3b3b" stroke-opacity="0.4" stroke-width="1.7"/><path d="M223.3 225.1Q215.6 230.4 211.0 238.7" stroke="#e8ff2a" stroke-opacity="0.42" stroke-width="1.2"/><path d="M140.1 211.6Q130.8 216.6 122.1 222.5" stroke="#e8ff2a" stroke-opacity="0.42" stroke-width="2.0"/><path d="M175.9 57.9Q180.7 58.9 184.6 61.7" stroke="#ff3b3b" stroke-opacity="0.4" stroke-width="1.2"/><path d="M150.2 155.5Q145.3 163.3 140.3 171.0" stroke="#ff3b3b" stroke-opacity="0.4" stroke-width="1.1"/><path d="M198.6 123.3Q197.2 132.2 190.5 138.2" stroke="#ff3b3b" stroke-opacity="0.4" stroke-width="1.8"/><path d="M11.4 63.1Q18.3 70.4 27.3 75.0" stroke="#e8ff2a" stroke-opacity="0.42" stroke-width="2.1"/><path d="M106.6 118.1Q98.9 123.9 92.3 131.0" stroke="#e8ff2a" stroke-opacity="0.42" stroke-width="1.7"/><path d="M32.5 57.8Q37.9 66.3 44.1 74.3" stroke="#e8ff2a" stroke-opacity="0.42" stroke-width="1.1"/><path d="M75.0 166.5Q71.1 175.5 64.8 183.0" stroke="#e8ff2a" stroke-opacity="0.42" stroke-width="1.6"/><path d="M112.2 24.2Q119.3 33.5 130.3 37.4" stroke="#e8ff2a" stroke-opacity="0.42" stroke-width="2.0"/><path d="M117.5 201.6Q120.9 212.9 121.2 224.8" stroke="#e8ff2a" stroke-opacity="0.42" stroke-width="1.3"/><path d="M55.2 145.6Q51.6 150.9 54.4 156.7" stroke="#ff3b3b" stroke-opacity="0.4" stroke-width="1.2"/><path d="M125.0 224.1Q130.4 232.7 139.6 237.1" stroke="#ff3b3b" stroke-opacity="0.4" stroke-width="1.6"/><path d="M-3.7 121.4Q3.0 126.4 5.5 134.2" stroke="#e8ff2a" stroke-opacity="0.42" stroke-width="1.4"/><path d="M256.3 121.4Q263.0 126.4 265.5 134.2" stroke="#e8ff2a" stroke-opacity="0.42" stroke-width="1.4"/><path d="M227.3 -4.5Q219.7 2.8 209.6 5.4" stroke="#e8ff2a" stroke-opacity="0.42" stroke-width="2.0"/><path d="M227.3 255.5Q219.7 262.8 209.6 265.4" stroke="#e8ff2a" stroke-opacity="0.42" stroke-width="2.0"/><path d="M232.0 68.5Q231.1 76.5 236.8 82.2" stroke="#ff3b3b" stroke-opacity="0.4" stroke-width="1.7"/><path d="M106.7 70.0Q110.6 73.8 115.9 73.1" stroke="#e8ff2a" stroke-opacity="0.42" stroke-width="1.4"/><path d="M57.9 64.4Q65.3 68.4 71.7 73.8" stroke="#ff3b3b" stroke-opacity="0.4" stroke-width="2.1"/><path d="M222.3 161.9Q211.0 163.7 200.0 166.1" stroke="#ff3b3b" stroke-opacity="0.4" stroke-width="1.8"/><path d="M194.9 108.1Q191.8 117.9 186.0 126.3" stroke="#e8ff2a" stroke-opacity="0.42" stroke-width="1.1"/><path d="M28.9 117.1Q31.8 123.8 37.3 128.5" stroke="#ff3b3b" stroke-opacity="0.4" stroke-width="2.1"/><path d="M167.7 70.0Q172.8 77.5 173.4 86.4" stroke="#e8ff2a" stroke-opacity="0.42" stroke-width="1.3"/><path d="M241.4 127.5Q234.5 125.9 229.7 131.0" stroke="#e8ff2a" stroke-opacity="0.42" stroke-width="1.5"/><path d="M43.2 21.6Q50.5 21.8 56.8 25.6" stroke="#e8ff2a" stroke-opacity="0.42" stroke-width="1.4"/><path d="M228.7 187.6Q230.5 195.0 232.7 202.2" stroke="#e8ff2a" stroke-opacity="0.42" stroke-width="1.5"/><path d="M5.3 67.6Q16.1 72.2 27.0 76.7" stroke="#e8ff2a" stroke-opacity="0.42" stroke-width="1.7"/><path d="M54.2 64.4Q56.5 70.3 58.1 76.5" stroke="#ff3b3b" stroke-opacity="0.4" stroke-width="2.1"/><path d="M229.9 1.9Q224.8 4.0 224.1 9.4" stroke="#ff3b3b" stroke-opacity="0.4" stroke-width="1.6"/><path d="M229.9 261.9Q224.8 264.0 224.1 269.4" stroke="#ff3b3b" stroke-opacity="0.4" stroke-width="1.6"/><path d="M9.8 95.8Q-1.2 99.7 -9.7 107.8" stroke="#e8ff2a" stroke-opacity="0.42" stroke-width="2.1"/><path d="M269.8 95.8Q258.8 99.7 250.3 107.8" stroke="#e8ff2a" stroke-opacity="0.42" stroke-width="2.1"/><path d="M32.9 33.1Q25.8 38.5 23.8 47.2" stroke="#e8ff2a" stroke-opacity="0.42" stroke-width="1.8"/><path d="M190.3 117.8Q198.6 120.9 207.4 120.0" stroke="#ff3b3b" stroke-opacity="0.4" stroke-width="1.3"/></svg>